<svg width="326" height="309" viewBox="0 0 326 309" fill="none" xmlns="http://www.w3.org/2000/svg">
<rect width="326" height="309" fill="#A93B25"/>
<path d="M162.5 60C185.441 60 207.443 69.1134 223.665 85.3353C239.887 101.557 249 123.559 249 146.5C249 169.441 239.887 191.443 223.665 207.665C207.443 223.887 185.441 233 162.5 233L162.5 146.5V60Z" fill="#5C85AD"/>
<path d="M162.5 233C139.559 233 117.557 223.887 101.335 207.665C85.1134 191.443 76 169.441 76 146.5C76 123.559 85.1134 101.557 101.335 85.3353C117.557 69.1134 139.559 60 162.5 60L162.5 146.5L162.5 233Z" fill="#D8D0C5"/>
<path d="M165 90C157.646 90 150.364 91.4614 143.57 94.3008C136.775 97.1402 130.602 101.302 125.402 106.548C120.202 111.795 116.077 118.023 113.263 124.878C110.448 131.733 109 139.08 109 146.5C109 153.92 110.448 161.267 113.263 168.122C116.077 174.977 120.202 181.205 125.402 186.452C130.602 191.698 136.776 195.86 143.57 198.699C150.364 201.539 157.646 203 165 203L165 146.5L165 90Z" fill="#1E1E1E"/>
<path d="M162.5 203C170.182 203 177.789 201.539 184.887 198.699C191.985 195.86 198.434 191.698 203.866 186.452C209.298 181.205 213.607 174.977 216.547 168.122C219.487 161.267 221 153.92 221 146.5C221 139.08 219.487 131.733 216.547 124.878C213.607 118.023 209.298 111.795 203.866 106.548C198.434 101.302 191.985 97.1402 184.887 94.3008C177.789 91.4614 170.182 90 162.5 90L162.5 146.5L162.5 203Z" fill="#E2B555"/>
<path d="M162.5 179C167.031 179 171.517 178.159 175.703 176.526C179.888 174.893 183.692 172.499 186.895 169.481C190.099 166.463 192.64 162.88 194.374 158.937C196.108 154.994 197 150.768 197 146.5C197 142.232 196.108 138.006 194.374 134.063C192.64 130.12 190.099 126.537 186.895 123.519C183.692 120.501 179.888 118.107 175.703 116.474C171.517 114.841 167.031 114 162.5 114L162.5 146.5L162.5 179Z" fill="#DDA497"/>
</svg>
